<?xml version="1.0" encoding="utf-8"?>
<!DOCTYPE svg PUBLIC "-//W3C//DTD SVG 20010904//EN" "http://www.w3.org/TR/2001/REC-SVG-20010904/DTD/svg10.dtd">
<svg version="1.0" xmlns="http://www.w3.org/2000/svg" width="484pt" height="234pt" viewBox="0 0 484 234" style="" preserveAspectRatio="xMidYMid meet">
<g fill="#FEFEFEFE" stroke="#FEFEFEFE">
<path d="M 103.681 43.462 C 102.796 44.347 101.830 45.055 101.536 45.036 C 101.241 45.016 101.000 45.225 101.000 45.500 C 101.000 45.775 101.225 46.000 101.500 46.000 C 101.775 46.000 102.916 46.916 104.036 48.036 C 105.157 49.157 106.507 49.805 107.036 49.477 C 107.566 49.150 108.000 49.434 108.000 50.108 C 108.000 50.782 108.263 51.071 108.583 50.750 C 108.904 50.429 110.046 51.046 111.120 52.120 C 112.194 53.194 113.507 53.805 114.036 53.477 C 114.566 53.150 115.000 53.434 115.000 54.108 C 115.000 54.782 115.293 55.040 115.651 54.682 C 116.009 54.324 116.797 54.674 117.401 55.461 C 118.006 56.247 119.157 57.027 119.961 57.195 C 120.764 57.363 122.295 58.272 123.362 59.215 C 124.430 60.159 125.685 60.695 126.151 60.406 C 126.618 60.118 127.000 60.434 127.000 61.108 C 127.000 61.782 127.263 62.071 127.583 61.750 C 127.904 61.429 129.046 62.046 130.120 63.120 C 131.194 64.194 132.507 64.805 133.036 64.477 C 133.566 64.150 134.000 64.434 134.000 65.108 C 134.000 65.782 134.263 66.071 134.583 65.750 C 134.904 65.429 136.046 66.046 137.120 67.120 C 138.194 68.194 139.507 68.805 140.036 68.477 C 140.566 68.150 141.000 68.262 141.000 68.725 C 141.000 69.189 142.350 70.366 144.000 71.341 C 145.650 72.316 147.000 72.845 147.000 72.518 C 147.000 72.190 147.968 72.824 149.151 73.926 C 150.335 75.029 151.685 75.695 152.151 75.406 C 152.618 75.118 153.000 75.385 153.000 76.000 C 153.000 76.615 153.450 76.840 154.000 76.500 C 154.550 76.160 155.000 76.350 155.000 76.922 C 155.000 77.494 156.125 78.244 157.500 78.589 C 158.875 78.934 160.000 79.693 160.000 80.275 C 160.000 80.857 160.293 81.040 160.651 80.682 C 161.009 80.324 161.797 80.674 162.401 81.461 C 163.006 82.247 164.090 83.027 164.812 83.195 C 165.828 83.431 166.099 86.914 166.018 98.696 C 165.920 112.853 165.779 113.935 163.956 114.514 C 162.880 114.855 162.000 115.554 162.000 116.067 C 162.000 116.580 161.550 117.000 161.000 117.000 C 160.380 117.000 160.000 111.541 160.000 102.622 C 160.000 87.810 159.524 85.988 155.503 85.398 C 154.790 85.293 153.244 84.244 152.067 83.067 C 150.890 81.890 149.493 81.195 148.964 81.523 C 148.434 81.850 148.000 81.738 148.000 81.275 C 148.000 80.811 146.650 79.634 145.000 78.659 C 143.350 77.684 142.000 77.155 142.000 77.482 C 142.000 77.810 141.032 77.176 139.849 76.074 C 138.665 74.971 137.315 74.305 136.849 74.594 C 136.382 74.882 136.000 74.714 136.000 74.220 C 136.000 73.484 131.929 71.105 130.000 70.714 C 129.725 70.658 128.628 69.799 127.561 68.806 C 125.789 67.155 124.433 66.604 123.727 67.250 C 123.576 67.388 122.366 66.488 121.038 65.250 C 119.710 64.013 118.258 63.000 117.811 63.000 C 116.264 63.000 115.491 62.603 113.599 60.841 C 112.553 59.866 111.315 59.305 110.849 59.594 C 110.382 59.882 110.000 59.566 110.000 58.892 C 110.000 58.218 109.727 57.940 109.394 58.273 C 109.060 58.607 107.867 58.022 106.742 56.974 C 105.617 55.927 104.315 55.305 103.849 55.594 C 103.382 55.882 103.000 55.738 103.000 55.275 C 103.000 54.073 97.409 50.924 96.640 51.693 C 96.288 52.045 96.000 51.856 96.000 51.274 C 96.000 49.450 92.928 48.937 90.827 50.409 C 88.820 51.815 88.820 51.820 90.945 53.945 C 92.115 55.115 93.507 55.805 94.036 55.477 C 94.566 55.150 95.000 55.262 95.000 55.725 C 95.000 56.189 96.350 57.366 98.000 58.341 C 99.650 59.316 101.000 59.845 101.000 59.518 C 101.000 59.190 101.968 59.824 103.151 60.926 C 104.335 62.029 105.685 62.695 106.151 62.406 C 106.618 62.118 107.000 62.434 107.000 63.108 C 107.000 63.782 107.263 64.071 107.583 63.750 C 107.904 63.429 109.046 64.046 110.120 65.120 C 111.194 66.194 112.507 66.805 113.036 66.477 C 113.566 66.150 114.000 66.262 114.000 66.725 C 114.000 67.189 115.350 68.366 117.000 69.341 C 118.650 70.316 120.000 70.845 120.000 70.518 C 120.000 70.190 120.968 70.824 122.151 71.926 C 123.335 73.029 124.685 73.695 125.151 73.406 C 125.618 73.118 126.000 73.434 126.000 74.108 C 126.000 74.782 126.263 75.071 126.583 74.750 C 126.904 74.429 128.046 75.046 129.120 76.120 C 130.194 77.194 131.507 77.805 132.036 77.477 C 132.566 77.150 133.000 77.262 133.000 77.725 C 133.000 78.189 134.350 79.366 136.000 80.341 C 137.650 81.316 139.000 81.863 139.000 81.557 C 139.000 81.250 139.916 81.916 141.036 83.036 C 142.157 84.157 143.507 84.805 144.036 84.477 C 144.566 84.150 145.000 84.434 145.000 85.108 C 145.000 85.782 145.263 86.070 145.585 85.749 C 145.906 85.427 146.918 85.806 147.835 86.590 C 148.751 87.375 149.854 87.997 150.286 87.972 C 150.718 87.948 151.752 88.609 152.584 89.442 C 153.800 90.657 154.094 93.857 154.081 105.727 C 154.072 113.852 154.036 120.275 154.001 120.000 C 153.965 119.725 153.276 120.374 152.468 121.441 C 151.661 122.509 151.000 123.016 151.000 122.569 C 151.000 122.121 150.325 122.315 149.500 123.000 C 148.178 124.097 148.000 122.455 148.000 109.158 C 148.000 95.448 147.829 93.979 146.131 93.070 C 145.104 92.520 143.979 92.355 143.631 92.702 C 143.284 93.049 143.000 92.733 143.000 92.000 C 143.000 91.267 142.707 90.960 142.349 91.318 C 141.991 91.676 141.203 91.326 140.599 90.539 C 139.994 89.753 138.843 88.973 138.039 88.805 C 137.236 88.637 135.705 87.728 134.638 86.785 C 133.570 85.841 132.315 85.305 131.849 85.594 C 131.382 85.882 131.000 85.566 131.000 84.892 C 131.000 84.218 130.727 83.940 130.394 84.273 C 130.060 84.607 128.867 84.022 127.742 82.974 C 126.617 81.927 125.315 81.305 124.849 81.594 C 124.382 81.882 124.000 81.738 124.000 81.275 C 124.000 80.811 122.650 79.634 121.000 78.659 C 119.350 77.684 118.000 77.155 118.000 77.482 C 118.000 77.810 117.032 77.176 115.849 76.074 C 114.665 74.971 113.315 74.305 112.849 74.594 C 112.382 74.882 112.000 74.714 112.000 74.220 C 112.000 73.452 107.005 70.602 106.231 70.928 C 106.082 70.991 104.985 70.132 103.792 69.021 C 102.599 67.909 101.258 67.000 100.811 67.000 C 99.264 67.000 98.491 66.603 96.599 64.841 C 95.553 63.866 94.315 63.305 93.849 63.594 C 93.382 63.882 93.000 63.714 93.000 63.220 C 93.000 62.399 87.531 59.367 87.477 60.158 C 87.464 60.346 86.415 59.533 85.146 58.350 C 82.667 56.041 80.317 55.870 79.058 57.906 C 78.628 58.602 77.989 59.132 77.638 59.085 C 77.287 59.038 77.000 59.225 77.000 59.500 C 77.000 59.775 77.000 59.775 77.000 59.500 C 77.000 59.225 77.916 59.916 79.036 61.036 C 80.157 62.157 81.507 62.805 82.036 62.477 C 82.566 62.150 83.000 62.262 83.000 62.725 C 83.000 63.189 84.350 64.366 86.000 65.341 C 87.650 66.316 89.000 66.845 89.000 66.518 C 89.000 66.190 89.985 66.840 91.189 67.961 C 93.181 69.817 94.546 70.415 95.273 69.750 C 95.424 69.613 96.617 70.497 97.925 71.715 C 99.233 72.934 100.685 73.695 101.151 73.406 C 101.618 73.118 102.000 73.434 102.000 74.108 C 102.000 74.782 102.273 75.060 102.606 74.727 C 102.940 74.393 104.133 74.978 105.258 76.026 C 106.383 77.073 107.685 77.695 108.151 77.406 C 108.618 77.118 109.000 77.262 109.000 77.725 C 109.000 78.189 110.350 79.366 112.000 80.341 C 113.650 81.316 115.000 81.845 115.000 81.518 C 115.000 81.190 115.968 81.824 117.151 82.926 C 118.335 84.029 119.685 84.695 120.151 84.406 C 120.618 84.118 121.000 84.434 121.000 85.108 C 121.000 85.782 121.273 86.060 121.606 85.727 C 121.940 85.393 123.133 85.978 124.258 87.026 C 125.383 88.073 126.685 88.695 127.151 88.406 C 127.618 88.118 128.000 88.286 128.000 88.780 C 128.000 89.571 130.534 91.082 133.500 92.059 C 134.050 92.240 135.372 93.201 136.439 94.194 C 138.334 95.960 138.684 96.118 141.250 96.375 C 142.176 96.468 142.566 100.385 142.756 111.500 L 143.012 126.500 139.910 128.500 L 136.808 130.500 136.950 115.663 C 137.046 105.560 136.758 101.032 136.046 101.472 C 135.471 101.827 135.000 101.738 135.000 101.275 C 135.000 100.811 133.650 99.634 132.000 98.659 C 130.350 97.684 129.000 97.155 129.000 97.482 C 129.000 97.810 128.032 97.176 126.849 96.074 C 125.665 94.971 124.315 94.305 123.849 94.594 C 123.382 94.882 123.000 94.566 123.000 93.892 C 123.000 93.218 122.727 92.940 122.394 93.273 C 122.060 93.607 120.867 93.022 119.742 91.974 C 118.617 90.927 117.315 90.305 116.849 90.594 C 116.382 90.882 116.000 90.738 116.000 90.275 C 116.000 89.073 110.409 85.924 109.640 86.693 C 109.288 87.045 109.000 86.733 109.000 86.000 C 109.000 85.267 108.738 84.929 108.417 85.250 C 108.096 85.571 106.954 84.954 105.880 83.880 C 104.806 82.806 103.493 82.195 102.964 82.523 C 102.434 82.850 102.000 82.738 102.000 82.275 C 102.000 81.073 96.409 77.924 95.640 78.693 C 95.288 79.045 95.000 78.808 95.000 78.167 C 95.000 77.525 94.518 77.000 93.929 77.000 C 93.339 77.000 92.178 76.321 91.348 75.491 C 90.518 74.661 89.425 74.237 88.919 74.550 C 88.414 74.862 88.000 74.738 88.000 74.275 C 88.000 73.811 86.650 72.634 85.000 71.659 C 83.350 70.684 82.000 70.133 82.000 70.434 C 82.000 70.734 81.085 70.197 79.968 69.240 C 78.850 68.283 77.663 67.651 77.329 67.835 C 76.996 68.020 76.448 67.784 76.112 67.312 C 75.775 66.840 74.232 65.647 72.683 64.660 C 69.876 62.873 68.104 63.310 65.888 66.335 C 65.552 66.795 64.989 67.132 64.638 67.085 C 62.902 66.853 62.211 67.155 60.208 69.021 C 59.015 70.132 57.805 71.032 57.519 71.021 C 57.234 71.009 56.635 71.000 56.189 71.000 C 55.742 71.000 54.392 71.918 53.189 73.039 C 51.985 74.160 51.000 74.810 51.000 74.482 C 51.000 74.155 49.650 74.684 48.000 75.659 C 46.350 76.634 45.000 77.811 45.000 78.275 C 45.000 78.738 44.623 78.885 44.163 78.601 C 43.703 78.316 42.343 78.772 41.142 79.613 C 38.959 81.142 38.958 81.164 39.023 119.486 L 39.089 157.828 41.509 159.414 C 42.840 160.286 44.151 161.000 44.420 161.000 C 44.690 161.000 44.941 143.812 44.977 122.805 C 45.039 86.205 45.124 84.533 47.001 82.784 C 48.079 81.780 49.180 81.080 49.448 81.229 C 49.716 81.378 50.737 80.813 51.718 79.974 C 52.698 79.134 53.849 78.369 54.276 78.272 C 56.272 77.820 65.000 72.586 65.000 71.841 C 65.000 71.378 65.338 71.071 65.750 71.159 C 66.163 71.246 67.288 70.973 68.250 70.552 C 69.213 70.131 70.680 70.047 71.510 70.366 C 72.341 70.684 73.303 70.919 73.649 70.887 C 73.994 70.855 74.623 71.391 75.047 72.077 C 75.885 73.432 74.331 75.318 71.976 75.805 C 71.164 75.973 70.006 76.753 69.401 77.539 C 68.797 78.326 68.009 78.676 67.651 78.318 C 67.293 77.960 67.000 78.218 67.000 78.892 C 67.000 79.566 66.566 79.850 66.036 79.523 C 65.507 79.195 64.194 79.806 63.120 80.880 C 62.046 81.954 60.904 82.571 60.583 82.250 C 60.263 81.929 60.000 82.218 60.000 82.892 C 60.000 83.566 59.566 83.850 59.036 83.523 C 58.507 83.195 57.194 83.806 56.120 84.880 C 55.046 85.954 53.904 86.571 53.583 86.250 C 53.263 85.929 53.000 86.218 53.000 86.892 C 53.000 87.566 52.550 87.840 52.000 87.500 C 50.657 86.670 50.657 162.922 52.000 165.000 C 52.533 165.825 52.990 166.050 53.015 165.500 C 53.040 164.950 53.525 165.297 54.092 166.271 C 54.659 167.245 55.545 167.781 56.061 167.462 C 56.619 167.117 57.000 151.568 57.000 129.121 L 57.000 91.361 59.503 89.184 C 60.880 87.987 62.230 87.006 62.503 87.004 C 62.776 87.002 63.365 87.000 63.811 87.000 C 64.258 87.000 65.608 86.082 66.811 84.961 C 68.015 83.840 69.000 83.190 69.000 83.518 C 69.000 83.845 70.350 83.316 72.000 82.341 C 73.650 81.366 75.000 80.189 75.000 79.725 C 75.000 79.262 75.450 79.160 76.000 79.500 C 76.550 79.840 77.000 79.615 77.000 79.000 C 77.000 78.385 77.419 78.141 77.931 78.457 C 78.443 78.774 79.144 78.575 79.490 78.016 C 80.367 76.596 83.158 76.804 85.331 78.451 C 87.101 79.793 87.098 79.899 85.247 81.669 C 84.195 82.676 82.696 83.637 81.917 83.805 C 81.137 83.973 80.006 84.753 79.401 85.539 C 78.797 86.326 78.009 86.676 77.651 86.318 C 77.293 85.960 77.000 86.218 77.000 86.892 C 77.000 87.566 76.618 87.882 76.151 87.594 C 75.685 87.305 74.430 87.841 73.362 88.785 C 72.295 89.728 70.764 90.637 69.961 90.805 C 69.157 90.973 68.006 91.753 67.401 92.539 C 66.797 93.326 66.009 93.676 65.651 93.318 C 65.293 92.960 65.000 93.218 65.000 93.892 C 65.000 94.566 64.545 94.837 63.988 94.493 C 63.311 94.074 63.063 106.860 63.238 133.184 C 63.408 158.637 63.853 172.465 64.500 172.401 C 65.050 172.346 66.096 173.021 66.824 173.901 C 67.552 174.780 67.863 174.938 67.515 174.250 C 67.167 173.563 67.359 173.000 67.941 173.000 C 68.667 173.000 69.000 161.280 69.000 135.680 L 69.000 98.361 71.250 96.404 C 72.488 95.328 73.823 94.460 74.218 94.474 C 74.612 94.488 75.850 93.717 76.968 92.760 C 78.085 91.803 79.000 91.266 79.000 91.566 C 79.000 91.867 80.350 91.316 82.000 90.341 C 83.650 89.366 85.000 88.189 85.000 87.725 C 85.000 87.262 85.382 87.118 85.849 87.406 C 86.315 87.695 87.665 87.029 88.849 85.926 C 90.032 84.824 91.000 84.255 91.000 84.661 C 91.000 85.067 91.523 84.877 92.161 84.239 C 93.572 82.828 99.000 85.634 99.000 87.775 C 99.000 88.513 98.566 88.850 98.036 88.523 C 97.507 88.195 96.194 88.806 95.120 89.880 C 94.046 90.954 92.904 91.571 92.583 91.250 C 92.263 90.929 92.000 91.218 92.000 91.892 C 92.000 92.566 91.618 92.882 91.151 92.594 C 90.685 92.305 89.383 92.927 88.258 93.974 C 87.133 95.022 85.940 95.607 85.606 95.273 C 85.273 94.940 85.000 95.218 85.000 95.892 C 85.000 96.566 84.618 96.882 84.151 96.594 C 83.685 96.305 82.383 96.927 81.258 97.974 C 80.133 99.022 78.940 99.607 78.606 99.273 C 78.273 98.940 78.000 99.192 78.000 99.833 C 78.000 100.475 77.438 100.888 76.750 100.750 C 75.770 100.554 75.453 108.975 75.283 139.750 C 75.146 164.506 75.423 179.000 76.033 179.000 C 77.751 179.000 78.465 179.355 80.439 181.194 C 81.505 182.187 82.742 183.000 83.189 183.000 C 84.736 183.000 85.509 183.397 87.401 185.159 C 88.447 186.134 89.685 186.695 90.151 186.406 C 90.618 186.118 91.000 186.434 91.000 187.108 C 91.000 187.782 91.273 188.060 91.606 187.727 C 91.940 187.393 93.133 187.978 94.258 189.026 C 95.383 190.073 96.685 190.695 97.151 190.406 C 97.618 190.118 98.000 190.434 98.000 191.108 C 98.000 191.782 98.263 192.070 98.585 191.749 C 98.906 191.427 100.046 191.915 101.117 192.832 C 102.188 193.749 103.337 194.349 103.671 194.165 C 104.004 193.980 104.599 194.351 104.993 194.988 C 105.513 195.830 106.128 195.729 107.236 194.622 C 108.075 193.782 109.040 193.374 109.381 193.714 C 109.721 194.055 110.000 193.782 110.000 193.108 C 110.000 192.434 110.382 192.118 110.849 192.406 C 111.315 192.695 112.665 192.029 113.849 190.926 C 115.032 189.824 116.000 189.190 116.000 189.518 C 116.000 189.845 117.350 189.316 119.000 188.341 C 120.650 187.366 122.000 186.189 122.000 185.725 C 122.000 185.262 122.434 185.150 122.964 185.477 C 123.493 185.805 124.843 185.157 125.964 184.036 C 127.084 182.916 128.000 182.250 128.000 182.557 C 128.000 182.863 129.350 182.316 131.000 181.341 C 132.650 180.366 134.000 179.189 134.000 178.725 C 134.000 178.262 134.450 178.160 135.000 178.500 C 135.550 178.840 136.000 178.615 136.000 178.000 C 136.000 177.385 136.382 177.118 136.849 177.406 C 137.315 177.695 138.553 177.134 139.599 176.159 C 141.491 174.397 142.264 174.000 143.811 174.000 C 144.258 174.000 145.608 173.082 146.811 171.961 C 148.015 170.840 149.000 170.190 149.000 170.518 C 149.000 170.845 150.350 170.316 152.000 169.341 C 153.650 168.366 155.000 167.189 155.000 166.725 C 155.000 166.262 155.382 166.118 155.849 166.406 C 156.315 166.695 157.617 166.073 158.742 165.026 C 159.867 163.978 161.060 163.393 161.394 163.727 C 161.727 164.060 162.000 163.782 162.000 163.108 C 162.000 162.434 162.382 162.118 162.849 162.406 C 163.315 162.695 164.570 162.159 165.638 161.215 C 166.705 160.272 168.234 159.351 169.036 159.168 C 171.548 158.595 173.000 156.843 173.000 154.384 C 173.000 152.667 172.517 152.103 171.250 152.341 C 168.437 152.869 164.000 155.243 164.000 156.220 C 164.000 156.714 163.618 156.882 163.151 156.594 C 162.685 156.305 161.383 156.927 160.258 157.974 C 159.133 159.022 157.940 159.607 157.606 159.273 C 157.273 158.940 157.000 159.218 157.000 159.892 C 157.000 160.566 156.618 160.882 156.151 160.594 C 155.685 160.305 154.430 160.841 153.362 161.785 C 152.295 162.728 150.764 163.646 149.961 163.825 C 149.157 164.004 148.350 164.566 148.167 165.075 C 147.983 165.584 147.196 166.000 146.417 166.000 C 145.638 166.000 145.000 166.450 145.000 167.000 C 145.000 167.550 144.663 167.921 144.250 167.825 C 143.006 167.536 138.000 170.255 138.000 171.220 C 138.000 171.714 137.618 171.882 137.151 171.594 C 136.685 171.305 135.383 171.927 134.258 172.974 C 133.133 174.022 131.940 174.607 131.606 174.273 C 131.273 173.940 131.000 174.218 131.000 174.892 C 131.000 175.566 130.618 175.882 130.151 175.594 C 129.685 175.305 128.233 176.066 126.925 177.285 C 125.617 178.503 124.424 179.388 124.273 179.250 C 123.567 178.604 122.211 179.155 120.439 180.806 C 119.372 181.799 118.050 182.760 117.500 182.941 C 114.534 183.918 112.000 185.429 112.000 186.220 C 112.000 186.714 111.618 186.882 111.151 186.594 C 110.685 186.305 109.358 186.949 108.204 188.024 C 106.949 189.194 105.856 189.575 105.484 188.974 C 105.142 188.420 104.443 188.226 103.931 188.543 C 103.419 188.859 103.000 188.566 103.000 187.892 C 103.000 187.218 102.727 186.940 102.394 187.273 C 102.060 187.607 100.867 187.022 99.742 185.974 C 98.617 184.927 97.315 184.305 96.849 184.594 C 96.382 184.882 96.000 184.615 96.000 184.000 C 96.000 183.385 95.550 183.160 95.000 183.500 C 94.450 183.840 94.000 183.738 94.000 183.275 C 94.000 182.811 92.650 181.634 91.000 180.659 C 89.350 179.684 88.000 179.155 88.000 179.482 C 88.000 179.810 87.015 179.160 85.811 178.039 C 84.608 176.918 83.258 176.000 82.811 176.000 C 80.938 176.000 80.625 175.311 80.882 171.756 C 81.136 168.232 81.280 168.082 83.326 169.218 C 84.522 169.882 85.838 170.329 86.250 170.212 C 86.663 170.096 87.000 170.378 87.000 170.839 C 87.000 171.761 92.048 174.454 93.250 174.175 C 93.663 174.079 94.000 174.477 94.000 175.059 C 94.000 175.641 94.450 175.840 95.000 175.500 C 95.550 175.160 96.000 175.262 96.000 175.725 C 96.000 176.927 101.591 180.076 102.360 179.307 C 102.712 178.955 103.000 179.144 103.000 179.726 C 103.000 181.716 106.176 182.009 109.090 180.288 C 110.691 179.342 112.000 178.216 112.000 177.784 C 112.000 177.353 112.338 177.079 112.750 177.175 C 113.994 177.464 119.000 174.745 119.000 173.780 C 119.000 173.286 119.382 173.118 119.849 173.406 C 120.315 173.695 121.617 173.073 122.742 172.026 C 123.867 170.978 125.060 170.393 125.394 170.727 C 125.727 171.060 126.000 170.782 126.000 170.108 C 126.000 169.434 126.382 169.118 126.849 169.406 C 127.315 169.695 128.553 169.134 129.599 168.159 C 131.491 166.397 132.264 166.000 133.811 166.000 C 134.258 166.000 135.495 165.187 136.561 164.194 C 137.628 163.201 138.950 162.329 139.500 162.258 C 141.280 162.027 150.000 156.606 150.000 155.731 C 150.000 155.264 150.450 155.160 151.000 155.500 C 151.550 155.840 152.000 155.615 152.000 155.000 C 152.000 154.385 152.382 154.118 152.849 154.406 C 153.315 154.695 154.617 154.073 155.742 153.026 C 156.867 151.978 158.060 151.393 158.394 151.727 C 158.727 152.060 159.000 151.782 159.000 151.108 C 159.000 150.434 159.382 150.118 159.849 150.406 C 160.315 150.695 161.570 150.159 162.638 149.215 C 163.705 148.272 165.236 147.363 166.039 147.195 C 166.843 147.027 167.994 146.247 168.599 145.461 C 169.203 144.674 169.991 144.324 170.349 144.682 C 170.707 145.040 171.000 144.782 171.000 144.108 C 171.000 143.434 171.450 143.160 172.000 143.500 C 172.582 143.860 173.000 142.863 173.000 141.116 C 173.000 138.713 172.624 138.187 171.113 138.478 C 168.677 138.947 165.000 141.246 165.000 142.300 C 165.000 142.750 164.550 142.840 164.000 142.500 C 163.450 142.160 163.000 142.359 163.000 142.941 C 163.000 143.523 162.357 144.000 161.571 144.000 C 160.786 144.000 159.548 144.595 158.821 145.321 C 157.503 146.640 156.723 147.000 155.189 147.000 C 154.742 147.000 153.505 147.813 152.439 148.806 C 151.372 149.799 150.275 150.658 150.000 150.714 C 148.141 151.091 144.000 153.470 144.000 154.161 C 144.000 154.622 143.663 154.947 143.250 154.882 C 141.443 154.596 140.225 155.142 137.962 157.250 C 136.634 158.488 135.424 159.388 135.273 159.250 C 134.529 158.570 133.155 159.207 130.962 161.250 C 129.634 162.488 128.311 163.448 128.023 163.385 C 126.968 163.154 123.000 165.346 123.000 166.161 C 123.000 166.622 122.663 166.921 122.250 166.825 C 121.048 166.546 116.000 169.239 116.000 170.161 C 116.000 170.622 115.663 170.921 115.250 170.825 C 114.205 170.582 109.000 173.183 109.000 173.948 C 109.000 175.215 104.447 174.868 102.258 173.433 C 101.016 172.620 99.993 172.302 99.985 172.727 C 99.976 173.152 99.639 173.026 99.235 172.447 C 98.267 171.061 91.000 166.657 91.000 167.457 C 91.000 167.799 90.015 167.160 88.811 166.039 C 86.833 164.196 86.230 163.918 84.464 164.036 C 81.794 164.214 79.658 155.947 82.000 154.500 C 82.550 154.160 83.000 154.434 83.000 155.108 C 83.000 155.782 83.273 156.060 83.606 155.727 C 83.940 155.393 85.133 155.978 86.258 157.026 C 87.383 158.073 88.685 158.695 89.151 158.406 C 89.618 158.118 90.000 158.385 90.000 159.000 C 90.000 159.615 90.450 159.840 91.000 159.500 C 91.550 159.160 92.000 159.262 92.000 159.725 C 92.000 160.189 93.350 161.366 95.000 162.341 C 96.650 163.316 98.000 163.845 98.000 163.518 C 98.000 163.190 98.985 163.840 100.189 164.961 C 101.392 166.082 102.630 167.034 102.939 167.077 C 103.247 167.119 104.294 167.305 105.265 167.490 C 106.236 167.676 107.682 167.175 108.479 166.378 C 109.276 165.581 110.282 164.884 110.714 164.829 C 112.553 164.596 116.000 162.608 116.000 161.780 C 116.000 161.286 116.382 161.118 116.849 161.406 C 117.315 161.695 118.617 161.073 119.742 160.026 C 120.867 158.978 122.060 158.393 122.394 158.727 C 122.727 159.060 123.000 158.782 123.000 158.108 C 123.000 157.434 123.382 157.118 123.849 157.406 C 124.315 157.695 125.665 157.029 126.849 155.926 C 128.032 154.824 129.000 154.190 129.000 154.518 C 129.000 154.845 130.350 154.316 132.000 153.341 C 133.650 152.366 135.000 151.189 135.000 150.725 C 135.000 150.262 135.450 150.160 136.000 150.500 C 136.550 150.840 137.000 150.641 137.000 150.059 C 137.000 149.477 137.675 149.000 138.500 149.000 C 139.325 149.000 140.000 148.523 140.000 147.941 C 140.000 147.359 140.450 147.160 141.000 147.500 C 141.550 147.840 142.000 147.615 142.000 147.000 C 142.000 146.385 142.382 146.118 142.849 146.406 C 143.315 146.695 144.553 146.134 145.599 145.159 C 147.491 143.397 148.264 143.000 149.811 143.000 C 150.258 143.000 151.608 142.082 152.811 140.961 C 154.015 139.840 155.000 139.190 155.000 139.518 C 155.000 139.845 156.350 139.316 158.000 138.341 C 159.650 137.366 161.000 136.189 161.000 135.725 C 161.000 135.262 161.434 135.150 161.964 135.477 C 162.493 135.805 163.806 135.194 164.880 134.120 C 165.954 133.046 167.096 132.429 167.417 132.750 C 167.738 133.071 168.000 132.808 168.000 132.167 C 168.000 131.525 168.338 131.071 168.750 131.159 C 169.163 131.246 170.288 130.973 171.250 130.552 C 172.917 129.822 173.672 126.005 172.400 124.734 C 171.609 123.943 167.000 126.064 167.000 127.220 C 167.000 127.714 166.618 127.882 166.151 127.594 C 165.685 127.305 164.383 127.927 163.258 128.974 C 162.133 130.022 160.940 130.607 160.606 130.273 C 160.273 129.940 160.000 130.192 160.000 130.833 C 160.000 131.475 159.357 132.000 158.571 132.000 C 157.786 132.000 156.355 132.788 155.393 133.750 C 154.430 134.713 153.386 135.448 153.071 135.385 C 151.922 135.155 148.000 137.347 148.000 138.220 C 148.000 138.714 147.618 138.882 147.151 138.594 C 146.685 138.305 145.383 138.927 144.258 139.974 C 143.133 141.022 141.940 141.607 141.606 141.273 C 141.273 140.940 141.000 141.218 141.000 141.892 C 141.000 142.566 140.618 142.882 140.151 142.594 C 139.685 142.305 138.233 143.066 136.925 144.285 C 135.617 145.503 134.424 146.388 134.273 146.250 C 133.529 145.570 132.155 146.207 129.962 148.250 C 128.634 149.488 127.311 150.448 127.023 150.385 C 125.928 150.145 122.000 152.362 122.000 153.220 C 122.000 153.714 121.618 153.882 121.151 153.594 C 120.685 153.305 119.383 153.927 118.258 154.974 C 117.133 156.022 115.940 156.607 115.606 156.273 C 115.273 155.940 115.000 156.218 115.000 156.892 C 115.000 157.566 114.618 157.882 114.151 157.594 C 113.685 157.305 112.430 157.841 111.362 158.785 C 110.295 159.728 108.764 160.646 107.961 160.825 C 107.157 161.004 106.354 161.553 106.177 162.045 C 105.999 162.538 104.918 162.070 103.775 161.005 C 102.632 159.940 101.315 159.305 100.849 159.594 C 100.382 159.882 100.000 159.566 100.000 158.892 C 100.000 158.218 99.727 157.940 99.394 158.273 C 99.060 158.607 97.867 158.022 96.742 156.974 C 95.617 155.927 94.315 155.305 93.849 155.594 C 93.382 155.882 93.000 155.738 93.000 155.275 C 93.000 154.811 91.650 153.634 90.000 152.659 C 88.350 151.684 87.000 151.155 87.000 151.482 C 87.000 151.810 86.015 151.160 84.811 150.039 C 83.608 148.918 82.258 148.000 81.811 148.000 C 81.365 148.000 81.000 146.425 81.000 144.500 C 81.000 140.625 81.567 140.308 84.646 142.465 C 85.796 143.270 87.021 143.645 87.369 143.298 C 87.716 142.951 88.000 143.119 88.000 143.673 C 88.000 144.717 92.933 147.481 94.250 147.175 C 94.663 147.079 95.000 147.378 95.000 147.839 C 95.000 148.580 100.049 151.387 100.786 151.057 C 100.943 150.986 101.756 151.613 102.592 152.449 C 103.429 153.286 104.875 153.848 105.807 153.699 C 108.345 153.293 118.000 147.816 118.000 146.782 C 118.000 146.287 118.450 146.160 119.000 146.500 C 119.550 146.840 120.000 146.615 120.000 146.000 C 120.000 145.385 120.382 145.118 120.849 145.406 C 121.315 145.695 122.617 145.073 123.742 144.026 C 124.867 142.978 126.060 142.393 126.394 142.727 C 126.727 143.060 127.000 142.857 127.000 142.275 C 127.000 141.693 128.125 140.934 129.500 140.589 C 130.875 140.244 132.000 139.520 132.000 138.981 C 132.000 138.441 132.900 138.000 134.000 138.000 C 135.100 138.000 136.000 137.550 136.000 137.000 C 136.000 136.450 136.675 136.000 137.500 136.000 C 138.325 136.000 139.000 135.523 139.000 134.941 C 139.000 134.359 139.382 134.118 139.849 134.406 C 140.315 134.695 141.617 134.073 142.742 133.026 C 143.867 131.978 145.060 131.393 145.394 131.727 C 145.727 132.060 146.000 131.782 146.000 131.108 C 146.000 130.434 146.382 130.118 146.849 130.406 C 147.315 130.695 148.767 129.934 150.075 128.715 C 151.383 127.497 152.576 126.613 152.727 126.750 C 153.454 127.415 154.819 126.817 156.811 124.961 C 158.015 123.840 159.000 123.190 159.000 123.518 C 159.000 123.845 160.350 123.316 162.000 122.341 C 163.650 121.366 165.000 120.189 165.000 119.725 C 165.000 119.262 165.434 119.150 165.964 119.477 C 166.493 119.805 167.843 119.157 168.964 118.036 C 170.084 116.916 171.209 116.113 171.464 116.250 C 171.718 116.388 171.898 108.288 171.863 98.250 C 171.828 88.154 171.397 80.000 170.900 80.000 C 170.405 80.000 169.766 80.009 169.481 80.021 C 169.195 80.032 167.985 79.132 166.792 78.021 C 165.599 76.909 164.258 76.000 163.811 76.000 C 163.365 76.000 162.766 76.009 162.481 76.021 C 162.195 76.032 161.002 75.148 159.829 74.055 C 158.657 72.963 157.315 72.305 156.849 72.594 C 156.382 72.882 156.000 72.738 156.000 72.275 C 156.000 71.811 154.650 70.634 153.000 69.659 C 151.350 68.684 150.000 68.155 150.000 68.482 C 150.000 68.810 149.032 68.176 147.849 67.074 C 146.665 65.971 145.315 65.305 144.849 65.594 C 144.382 65.882 144.000 65.566 144.000 64.892 C 144.000 64.218 143.727 63.940 143.394 64.273 C 143.060 64.607 141.867 64.022 140.742 62.974 C 139.617 61.927 138.315 61.305 137.849 61.594 C 137.382 61.882 137.000 61.738 137.000 61.275 C 137.000 60.811 135.650 59.634 134.000 58.659 C 132.350 57.684 131.000 57.155 131.000 57.482 C 131.000 57.810 130.032 57.176 128.849 56.074 C 127.665 54.971 126.315 54.305 125.849 54.594 C 125.382 54.882 125.000 54.566 125.000 53.892 C 125.000 53.218 124.727 52.940 124.394 53.273 C 124.060 53.607 122.867 53.022 121.742 51.974 C 120.617 50.927 119.315 50.305 118.849 50.594 C 118.382 50.882 118.000 50.615 118.000 50.000 C 118.000 49.385 117.597 49.131 117.105 49.435 C 116.612 49.740 115.941 49.288 115.612 48.431 C 115.283 47.574 114.561 47.153 114.007 47.496 C 113.453 47.838 113.000 47.566 113.000 46.892 C 113.000 46.218 112.737 45.930 112.415 46.251 C 112.094 46.573 111.082 46.194 110.165 45.410 C 109.249 44.625 108.100 44.026 107.612 44.077 C 107.123 44.129 106.401 43.649 106.007 43.012 C 105.491 42.176 104.840 42.302 103.681 43.462 M 109.671 92.520 C 110.952 93.359 112.000 93.793 112.000 93.484 C 112.000 93.175 112.985 93.840 114.189 94.961 C 115.392 96.082 116.742 97.000 117.189 97.000 C 118.740 97.000 119.511 97.398 121.439 99.194 C 122.505 100.187 123.742 101.000 124.189 101.000 C 125.665 101.000 126.477 101.428 128.750 103.404 C 130.895 105.269 131.000 106.056 131.000 120.239 C 131.000 129.904 130.650 134.901 130.000 134.500 C 129.450 134.160 129.000 134.385 129.000 135.000 C 129.000 135.615 128.618 135.882 128.151 135.594 C 127.685 135.305 126.447 135.866 125.401 136.841 C 124.356 137.815 123.177 138.587 122.782 138.556 C 122.388 138.525 121.188 139.251 120.117 140.168 C 119.046 141.085 117.906 141.573 117.585 141.251 C 117.263 140.930 117.000 141.218 117.000 141.892 C 117.000 142.566 116.618 142.882 116.151 142.594 C 115.685 142.305 114.335 142.971 113.151 144.074 C 111.968 145.176 111.000 145.780 111.000 145.417 C 111.000 145.053 110.316 145.323 109.479 146.017 C 107.521 147.642 103.000 148.150 103.000 146.745 C 103.000 146.152 102.737 145.930 102.415 146.251 C 102.094 146.573 100.954 146.085 99.883 145.168 C 98.812 144.251 97.716 143.622 97.448 143.771 C 97.180 143.920 96.002 143.148 94.829 142.055 C 93.657 140.963 92.315 140.305 91.849 140.594 C 91.382 140.882 91.000 140.566 91.000 139.892 C 91.000 139.218 90.727 138.940 90.394 139.273 C 90.060 139.607 88.867 139.022 87.742 137.974 C 86.617 136.927 85.315 136.305 84.849 136.594 C 84.382 136.882 84.000 136.615 84.000 136.000 C 84.000 135.385 83.597 135.131 83.105 135.435 C 82.612 135.740 81.937 135.279 81.605 134.412 C 80.664 131.961 80.893 102.816 81.849 103.406 C 82.315 103.695 83.617 103.073 84.742 102.026 C 85.867 100.978 87.060 100.393 87.394 100.727 C 87.727 101.060 88.000 100.782 88.000 100.108 C 88.000 99.434 88.382 99.118 88.849 99.406 C 89.315 99.695 90.617 99.073 91.742 98.026 C 92.867 96.978 94.060 96.393 94.394 96.727 C 94.727 97.060 95.000 96.733 95.000 96.000 C 95.000 95.267 95.288 94.955 95.640 95.307 C 96.302 95.969 102.000 93.008 102.000 92.003 C 102.000 90.729 107.504 91.100 109.671 92.520 "/></g>
<g fill="#FEFEFEFE" stroke="#FEFEFEFE">
<path d="M 289.667 90.667 C 289.300 91.033 289.007 107.571 289.015 127.417 C 289.025 151.083 289.364 162.984 290.000 162.000 C 290.533 161.175 290.976 160.956 290.985 161.513 C 290.993 162.071 293.284 162.554 296.075 162.588 L 301.150 162.649 300.887 152.870 C 300.666 144.653 300.831 143.378 301.919 144.888 C 302.950 146.317 304.622 146.684 310.107 146.684 C 313.898 146.684 317.000 146.279 317.000 145.783 C 317.000 145.287 317.390 145.123 317.866 145.417 C 319.356 146.338 322.108 142.444 321.354 140.481 C 320.876 139.235 321.025 138.897 321.830 139.395 C 322.709 139.938 323.000 134.869 323.000 119.000 C 323.000 105.339 322.651 98.098 322.011 98.493 C 321.438 98.847 321.281 98.431 321.638 97.501 C 322.365 95.607 318.564 91.168 316.142 91.082 C 315.239 91.050 312.808 90.744 310.739 90.401 C 307.624 89.886 306.337 90.254 303.239 92.546 C 301.183 94.069 300.027 94.738 300.672 94.035 C 302.961 91.537 301.013 90.000 295.560 90.000 C 292.685 90.000 290.033 90.300 289.667 90.667 M 311.093 119.010 L 311.093 138.260 306.546 138.380 C 304.045 138.446 301.999 138.088 301.999 137.583 C 302.000 137.079 301.737 136.930 301.416 137.251 C 301.094 137.573 300.757 129.528 300.666 119.375 C 300.507 101.656 300.580 100.896 302.500 100.481 C 304.861 99.970 310.372 99.390 310.797 99.608 C 310.960 99.691 311.093 108.422 311.093 119.010 "/></g>
<g fill="#FEFEFEFE" stroke="#FEFEFEFE">
<path d="M 255.091 90.883 C 254.316 91.396 253.082 91.585 252.349 91.304 C 251.616 91.023 250.741 91.512 250.404 92.391 C 250.066 93.269 249.435 93.769 249.000 93.500 C 247.932 92.840 246.826 95.910 247.651 97.245 C 248.039 97.872 247.835 98.016 247.155 97.595 C 246.295 97.064 246.000 102.489 246.000 118.806 C 246.000 139.497 246.117 140.879 248.080 143.375 C 249.224 144.829 250.574 145.763 251.080 145.451 C 251.586 145.138 252.000 145.304 252.000 145.819 C 252.000 146.344 257.133 146.785 263.687 146.822 C 274.617 146.884 275.511 146.741 277.490 144.605 C 278.655 143.349 279.412 141.736 279.174 141.021 C 278.918 140.253 279.202 140.007 279.870 140.420 C 280.697 140.931 281.000 135.184 281.000 119.000 C 281.000 102.367 280.710 97.061 279.830 97.605 C 279.056 98.084 278.865 97.793 279.267 96.747 C 279.634 95.790 279.208 94.871 278.187 94.419 C 276.839 93.823 276.802 93.652 278.000 93.571 C 279.264 93.485 279.279 93.330 278.096 92.580 C 275.018 90.632 257.433 89.334 255.091 90.883 M 269.093 118.952 L 269.097 138.500 263.589 138.201 L 258.081 137.903 257.791 118.602 L 257.500 99.302 263.294 99.353 L 269.089 99.405 269.093 118.952 "/></g>
<g fill="#FEFEFEFE" stroke="#FEFEFEFE">
<path d="M 339.048 90.903 C 338.249 91.434 337.246 91.652 336.818 91.388 C 336.391 91.124 335.020 91.475 333.771 92.168 C 332.247 93.014 331.993 93.469 333.000 93.551 C 334.204 93.649 334.167 93.820 332.813 94.419 C 331.792 94.871 331.366 95.790 331.733 96.747 C 332.135 97.793 331.944 98.084 331.170 97.605 C 330.290 97.061 330.000 102.367 330.000 119.000 C 330.000 134.415 330.323 140.918 331.067 140.459 C 331.654 140.096 332.050 140.407 331.948 141.150 C 331.626 143.496 331.976 145.357 332.619 144.714 C 332.960 144.374 333.842 144.699 334.579 145.437 C 335.431 146.288 338.399 146.788 342.710 146.806 C 348.496 146.830 349.756 146.513 351.228 144.667 L 352.956 142.500 352.978 144.750 C 352.997 146.744 353.508 147.000 357.470 147.000 L 361.940 147.000 362.220 118.499 L 362.500 89.999 357.389 89.999 C 352.364 90.000 352.285 90.047 352.754 92.750 C 353.205 95.351 353.151 95.396 351.754 93.579 C 350.941 92.522 349.427 91.470 348.388 91.239 C 343.391 90.132 340.373 90.023 339.048 90.903 M 352.076 101.453 C 352.628 101.112 353.000 108.165 353.000 119.000 C 353.000 130.824 352.653 136.903 352.000 136.500 C 351.450 136.160 351.000 136.471 351.000 137.191 C 351.000 138.076 349.542 138.500 346.500 138.500 L 342.000 138.500 342.000 119.307 L 342.000 100.115 346.250 99.807 C 349.049 99.605 350.611 99.931 350.826 100.762 C 351.005 101.456 351.567 101.767 352.076 101.453 "/></g>
<g fill="#FEFEFEFE" stroke="#FEFEFEFE">
<path d="M 203.141 111.000 C 203.141 132.238 203.500 146.664 204.000 145.500 C 204.735 143.790 204.870 143.754 204.930 145.250 C 204.987 146.674 205.932 147.000 210.000 147.000 L 215.000 147.000 215.000 130.559 C 215.000 121.516 215.408 113.866 215.907 113.558 C 216.405 113.249 216.560 113.968 216.249 115.155 C 215.865 116.623 216.051 117.086 216.831 116.604 C 217.598 116.131 217.759 116.464 217.319 117.612 C 216.846 118.843 217.021 119.105 217.937 118.539 C 218.894 117.947 219.035 118.314 218.500 120.000 C 218.017 121.521 218.141 122.031 218.881 121.573 C 219.568 121.149 219.755 121.475 219.382 122.448 C 219.053 123.304 219.309 124.000 219.952 124.000 C 220.593 124.000 220.865 124.409 220.556 124.910 C 219.695 126.303 221.071 129.074 222.259 128.340 C 222.875 127.959 223.012 128.172 222.590 128.854 C 221.651 130.373 222.872 134.197 224.061 133.463 C 224.565 133.151 224.709 133.594 224.382 134.448 C 224.054 135.302 224.270 136.000 224.862 136.000 C 225.454 136.000 225.650 136.748 225.299 137.664 C 224.872 138.775 225.045 139.090 225.819 138.612 C 226.575 138.144 226.771 138.434 226.382 139.448 C 226.053 140.304 226.309 141.000 226.952 141.000 C 227.593 141.000 227.846 141.441 227.513 141.979 C 227.180 142.518 227.406 143.890 228.015 145.027 C 228.966 146.805 229.911 147.054 234.732 146.798 C 238.423 146.602 240.499 146.025 240.801 145.111 C 241.077 144.275 240.814 143.997 240.141 144.413 C 239.429 144.853 239.239 144.540 239.618 143.552 C 239.947 142.696 239.691 142.000 239.048 142.000 C 238.407 142.000 238.135 141.591 238.444 141.090 C 239.238 139.806 237.973 136.899 236.907 137.558 C 236.421 137.858 236.291 137.406 236.618 136.552 C 236.946 135.698 236.730 135.000 236.138 135.000 C 235.546 135.000 235.350 134.252 235.701 133.336 C 236.128 132.225 235.955 131.910 235.181 132.388 C 234.425 132.856 234.229 132.566 234.618 131.552 C 234.947 130.696 234.691 130.000 234.048 130.000 C 233.407 130.000 233.160 129.550 233.500 129.000 C 233.840 128.450 233.656 128.000 233.090 128.000 C 232.525 128.000 232.350 127.251 232.701 126.336 C 233.128 125.225 232.955 124.910 232.181 125.388 C 231.425 125.856 231.229 125.566 231.618 124.552 C 231.947 123.696 231.691 123.000 231.048 123.000 C 230.407 123.000 230.135 122.591 230.444 122.090 C 231.311 120.687 229.925 117.928 228.725 118.670 C 228.057 119.083 227.898 118.708 228.299 117.664 C 228.650 116.749 228.515 116.000 228.000 116.000 C 227.485 116.000 227.350 115.251 227.701 114.336 C 228.114 113.262 227.948 112.914 227.234 113.355 C 226.446 113.842 226.389 113.130 227.035 110.877 C 227.534 109.138 227.661 107.260 227.317 106.703 C 226.932 106.080 227.201 106.006 228.015 106.510 C 228.977 107.104 229.165 106.872 228.701 105.664 C 228.350 104.748 228.546 104.000 229.138 104.000 C 229.730 104.000 229.946 103.302 229.618 102.448 C 229.291 101.594 229.421 101.142 229.907 101.442 C 231.123 102.194 232.079 99.371 231.299 97.336 C 230.898 96.292 231.057 95.917 231.725 96.330 C 232.925 97.072 234.311 94.313 233.444 92.910 C 233.135 92.409 233.385 92.000 234.000 92.000 C 234.615 92.000 234.840 91.550 234.500 91.000 C 234.160 90.450 234.407 90.000 235.048 90.000 C 235.691 90.000 235.947 89.304 235.618 88.448 C 235.229 87.434 235.425 87.144 236.181 87.612 C 236.955 88.090 237.128 87.775 236.701 86.664 C 236.350 85.748 236.546 85.000 237.138 85.000 C 237.730 85.000 237.946 84.302 237.618 83.448 C 237.239 82.460 237.429 82.147 238.141 82.587 C 238.813 83.002 239.076 82.727 238.799 81.898 C 238.546 81.139 238.919 79.938 239.627 79.230 C 242.175 76.682 240.084 75.000 234.368 75.000 C 229.463 75.000 228.858 75.244 227.968 77.584 C 227.428 79.005 227.283 80.650 227.647 81.238 C 228.069 81.921 227.829 82.012 226.985 81.490 C 226.023 80.896 225.835 81.128 226.299 82.336 C 226.650 83.252 226.454 84.000 225.862 84.000 C 225.270 84.000 225.054 84.698 225.382 85.552 C 225.709 86.406 225.579 86.858 225.093 86.558 C 223.965 85.860 222.897 88.568 223.589 90.371 C 223.878 91.125 223.383 92.023 222.489 92.366 C 221.353 92.802 221.066 93.634 221.538 95.120 C 221.957 96.441 221.833 97.015 221.212 96.631 C 219.901 95.821 218.884 98.535 219.701 100.664 C 220.102 101.708 219.943 102.083 219.275 101.670 C 218.003 100.884 216.713 103.726 217.651 105.245 C 218.067 105.918 217.826 106.011 216.997 105.498 C 216.020 104.894 215.829 105.238 216.249 106.845 C 216.560 108.032 216.405 108.751 215.907 108.442 C 215.408 108.134 215.000 100.484 215.000 91.441 L 215.000 75.000 210.000 75.000 C 205.932 75.000 204.987 75.326 204.930 76.750 C 204.870 78.246 204.735 78.210 204.000 76.500 C 203.500 75.336 203.141 89.762 203.141 111.000 "/></g>
<g fill="#FEFEFEFE" stroke="#FEFEFEFE">
<path d="M 422.048 90.909 C 421.249 91.436 420.168 91.604 419.646 91.281 C 419.124 90.959 418.090 91.524 417.348 92.538 C 416.607 93.553 415.984 93.959 415.965 93.441 C 415.945 92.924 415.286 93.625 414.500 95.000 C 413.386 96.949 413.063 102.262 413.035 119.115 C 413.002 139.522 413.116 140.878 415.080 143.375 C 416.224 144.829 417.574 145.763 418.080 145.451 C 418.586 145.138 419.000 145.309 419.000 145.830 C 419.000 146.370 423.736 146.778 430.000 146.778 C 436.264 146.778 441.000 146.370 441.000 145.830 C 441.000 145.309 441.414 145.138 441.919 145.450 C 442.425 145.763 443.598 145.227 444.527 144.259 C 445.455 143.292 445.732 142.607 445.143 142.738 C 444.554 142.869 444.328 142.309 444.641 141.494 C 444.954 140.679 445.612 140.260 446.105 140.565 C 446.597 140.869 447.000 138.594 447.000 135.509 L 447.000 129.900 441.250 130.200 L 435.500 130.500 435.500 134.421 L 435.500 138.341 430.250 138.098 L 425.000 137.855 425.000 130.427 L 425.000 123.000 435.750 122.998 L 446.500 122.995 446.432 109.069 C 446.380 98.469 446.022 94.763 444.932 93.551 C 443.623 92.095 443.543 92.095 444.000 93.556 C 444.361 94.709 444.082 94.619 443.000 93.236 C 441.292 91.051 441.160 91.020 431.000 90.404 C 426.875 90.154 422.846 90.381 422.048 90.909 M 434.784 100.204 C 436.118 101.284 436.243 101.266 435.537 100.095 C 434.963 99.142 435.062 98.920 435.845 99.405 C 436.545 99.837 437.001 102.954 437.002 107.309 L 437.004 114.500 431.078 114.165 L 425.152 113.830 424.826 106.658 L 424.500 99.485 428.842 99.196 C 431.328 99.031 433.868 99.462 434.784 100.204 "/></g>
<g fill="#FEFEFEFE" stroke="#FEFEFEFE">
<path d="M 372.000 108.500 L 372.000 146.765 378.000 146.765 L 384.000 146.765 384.000 108.500 L 384.000 70.235 378.000 70.235 L 372.000 70.235 372.000 108.500 "/></g>
<g fill="#FEFEFEFE" stroke="#FEFEFEFE">
<path d="M 394.000 108.338 L 394.000 146.676 398.500 146.846 L 403.000 147.016 403.000 108.508 L 403.000 70.000 398.500 70.000 L 394.000 70.000 394.000 108.338 "/></g>
</svg>
